<?xml version="1.0" ?><svg viewBox="0 0 394.86 438.7" xmlns="http://www.w3.org/2000/svg"><title/><g data-name="Layer 2" id="Layer_2"><g data-name="pizza, italian, cheese, slice, tomato, food, meal, fast, restaurant, junk, fastfood" id="pizza_italian_cheese_slice_tomato_food_meal_fast_restaurant_junk_fastfood"><path d="M133,236.54a67.19,67.19,0,0,0-14.24-93.95,68.49,68.49,0,0,0-10.62-6.42,5.39,5.39,0,1,0-4.7,9.7,57.81,57.81,0,0,1,8.93,5.4A56.41,56.41,0,0,1,71.47,252.6a5.39,5.39,0,0,0-1.42,10.68,67.22,67.22,0,0,0,63-26.74Z"/><path d="M77.08,226.81a5.39,5.39,0,1,0-.66,10.76c.85.05,1.7.07,2.54.07a40.95,40.95,0,0,0,24.28-73.92,40.09,40.09,0,0,0-3.4-2.26,5.39,5.39,0,0,0-5.5,9.27c.85.51,1.7,1.07,2.5,1.66a30.18,30.18,0,0,1-19.76,54.42Z"/><path d="M98.66,318.44a5.4,5.4,0,0,0-7.4,1.83,55.82,55.82,0,0,0-5.18,46.37,5.4,5.4,0,0,0,5.12,3.71,5.25,5.25,0,0,0,1.69-.28,5.38,5.38,0,0,0,3.43-6.8,45,45,0,0,1,4.17-37.43A5.39,5.39,0,0,0,98.66,318.44Z"/><path d="M168.53,314.89a5.3,5.3,0,0,0,3.5,1.3,5.39,5.39,0,0,0,3.51-9.48c-1-.9-2.14-1.77-3.26-2.59a55.47,55.47,0,0,0-41.65-10.24,5.39,5.39,0,1,0,1.64,10.65,44.81,44.81,0,0,1,33.62,8.27C166.79,313.46,167.68,314.17,168.53,314.89Z"/><path d="M112.81,353.4H113a5.39,5.39,0,0,0,5.38-5.17,20.74,20.74,0,0,1,33-15.83,5.39,5.39,0,1,0,6.4-8.68,31.52,31.52,0,0,0-50.19,24.07A5.39,5.39,0,0,0,112.81,353.4Z"/><path d="M9.33,434.2a22.69,22.69,0,0,0,26.07.74L302,261a5.39,5.39,0,0,0-5.89-9L29.51,425.91a11.88,11.88,0,0,1-13.79-.39,11.89,11.89,0,0,1-4.46-13L92.18,128.06a5.39,5.39,0,0,0-10.37-3L.89,409.52A22.71,22.71,0,0,0,9.33,434.2Z"/><path d="M257.92,251.78a53.35,53.35,0,1,0-43,21.68A52.95,52.95,0,0,0,257.92,251.78Zm-77.18-56.86a42.54,42.54,0,1,1,9,59.48A42.51,42.51,0,0,1,180.74,194.92Z"/><path d="M237.68,236.87a28.26,28.26,0,0,0-1.75-35.57,5.39,5.39,0,1,0-8,7.22A17.4,17.4,0,1,1,201,209.84a17.17,17.17,0,0,1,9-6.34,5.39,5.39,0,0,0-3.1-10.33,28.18,28.18,0,1,0,30.8,43.7Z"/><path d="M68.25,105.05a28.94,28.94,0,0,0,40.43-6.13,17.35,17.35,0,0,1,18.59-6.5l2.27.62a296.45,296.45,0,0,1,170,125.25A281.32,281.32,0,0,1,313.83,243a32.86,32.86,0,0,0,29.24,18,32.25,32.25,0,0,0,15.73-4.12l18.39-10.22a34.29,34.29,0,0,0,13-47.23c-18.58-31.9-57.77-91.33-111.49-130.91S156.6,9.18,120.63.89A34.3,34.3,0,0,0,79.37,27.3L77.6,35.78a51.35,51.35,0,0,1-8.94,20l-6.54,8.87A29,29,0,0,0,68.25,105.05ZM70.8,71l6.53-8.86A61.72,61.72,0,0,0,88.15,38l1.78-8.49a23.5,23.5,0,0,1,28.28-18.11c35.16,8.1,101.94,27.43,154.1,65.86s90.41,96.48,108.56,127.66A23.52,23.52,0,0,1,372,237.29l-18.39,10.22a21.55,21.55,0,0,1-16.9,1.79,21.89,21.89,0,0,1-13.23-11.15,295.25,295.25,0,0,0-14.84-25.7A307.18,307.18,0,0,0,132.42,82.66L130.07,82a28.79,28.79,0,0,0-7.43-1A28,28,0,0,0,100,92.53,18.13,18.13,0,0,1,70.8,71Z"/><path d="M136.57,134.86a5.39,5.39,0,0,0,6.39-8.68l-10.67-7.86A5.39,5.39,0,1,0,125.9,127Z"/><path d="M168.57,166.67a5.36,5.36,0,0,0,4.34-2.2l8.8-11.94a5.39,5.39,0,1,0-8.68-6.4l-8.8,12a5.4,5.4,0,0,0,4.34,8.59Z"/><path d="M142.63,255.85l4.36,13a5.39,5.39,0,0,0,10.22-3.43l-4.36-13a5.39,5.39,0,0,0-10.22,3.44Z"/><path d="M197.77,283.86l-13,2.87a5.39,5.39,0,0,0,1.15,10.66,5.18,5.18,0,0,0,1.17-.13l13-2.88a5.39,5.39,0,0,0-2.32-10.52Z"/><path d="M109.9,310.89a5.29,5.29,0,0,0,2.57-.66,5.39,5.39,0,0,0,2.17-7.31l-9.41-17.31a5.39,5.39,0,0,0-9.48,5.15l9.41,17.31A5.39,5.39,0,0,0,109.9,310.89Z"/><path d="M58.39,354.55a5.38,5.38,0,0,0-5,5.7l1.1,18a5.39,5.39,0,0,0,5.37,5.06h.34a5.39,5.39,0,0,0,5.05-5.71l-1.1-18A5.39,5.39,0,0,0,58.39,354.55Z"/><path d="M74,305a5.39,5.39,0,0,0-7.57-.9l-12.1,9.51A5.39,5.39,0,1,0,61,322.08l12.1-9.51A5.4,5.4,0,0,0,74,305Z"/></g></g></svg>